<mxfile host="app.diagrams.net" modified="2021-09-15T08:23:19.537Z" agent="5.0 (Windows NT 10.0; Win64; x64) AppleWebKit/537.36 (KHTML, like Gecko) Chrome/93.0.4577.63 Safari/537.36" etag="j75EnjoFEjhmPkcBt_Dn" version="15.2.7" type="github">
  <diagram id="wJm0tbyQrgy4sERXDvBd" name="Page-1">
    <mxGraphModel dx="981" dy="548" grid="1" gridSize="10" guides="1" tooltips="1" connect="1" arrows="1" fold="1" page="1" pageScale="1" pageWidth="827" pageHeight="1169" math="0" shadow="0">
      <root>
        <mxCell id="0" />
        <mxCell id="1" parent="0" />
        <mxCell id="cnfJAOq977_rUjbDMSEz-4" value="" style="sketch=0;aspect=fixed;html=1;points=[];align=center;image;fontSize=12;image=img/lib/mscae/WebAppWordPress.svg;" vertex="1" parent="1">
          <mxGeometry x="480" y="555" width="49" height="50" as="geometry" />
        </mxCell>
        <mxCell id="cnfJAOq977_rUjbDMSEz-5" value="FaceBook API get comment" style="rounded=0;whiteSpace=wrap;html=1;" vertex="1" parent="1">
          <mxGeometry x="450" y="390" width="120" height="60" as="geometry" />
        </mxCell>
        <mxCell id="cnfJAOq977_rUjbDMSEz-7" value="" style="endArrow=classic;startArrow=classic;html=1;exitX=0.486;exitY=0.023;exitDx=0;exitDy=0;exitPerimeter=0;" edge="1" parent="1" source="cnfJAOq977_rUjbDMSEz-4">
          <mxGeometry width="50" height="50" relative="1" as="geometry">
            <mxPoint x="460" y="500" as="sourcePoint" />
            <mxPoint x="510" y="450" as="targetPoint" />
          </mxGeometry>
        </mxCell>
        <mxCell id="cnfJAOq977_rUjbDMSEz-8" value="return post comment" style="edgeLabel;html=1;align=center;verticalAlign=middle;resizable=0;points=[];" vertex="1" connectable="0" parent="cnfJAOq977_rUjbDMSEz-7">
          <mxGeometry x="-0.1405" y="-1" relative="1" as="geometry">
            <mxPoint x="1" as="offset" />
          </mxGeometry>
        </mxCell>
        <mxCell id="cnfJAOq977_rUjbDMSEz-9" value="Facebook Developer App" style="rounded=0;whiteSpace=wrap;html=1;" vertex="1" parent="1">
          <mxGeometry x="240" y="390" width="120" height="60" as="geometry" />
        </mxCell>
        <mxCell id="cnfJAOq977_rUjbDMSEz-10" value="" style="endArrow=classic;html=1;exitX=0.463;exitY=1.01;exitDx=0;exitDy=0;exitPerimeter=0;entryX=-0.077;entryY=0.202;entryDx=0;entryDy=0;entryPerimeter=0;" edge="1" parent="1" source="cnfJAOq977_rUjbDMSEz-9" target="cnfJAOq977_rUjbDMSEz-4">
          <mxGeometry width="50" height="50" relative="1" as="geometry">
            <mxPoint x="310" y="540" as="sourcePoint" />
            <mxPoint x="360" y="490" as="targetPoint" />
          </mxGeometry>
        </mxCell>
        <mxCell id="cnfJAOq977_rUjbDMSEz-11" value="Sign in OAuth&lt;br&gt;by FaceBook Account" style="edgeLabel;html=1;align=center;verticalAlign=middle;resizable=0;points=[];" vertex="1" connectable="0" parent="cnfJAOq977_rUjbDMSEz-10">
          <mxGeometry x="-0.1181" y="-1" relative="1" as="geometry">
            <mxPoint as="offset" />
          </mxGeometry>
        </mxCell>
        <mxCell id="cnfJAOq977_rUjbDMSEz-12" value="wit.ai" style="rounded=0;whiteSpace=wrap;html=1;" vertex="1" parent="1">
          <mxGeometry x="445" y="700" width="120" height="60" as="geometry" />
        </mxCell>
        <mxCell id="cnfJAOq977_rUjbDMSEz-13" value="" style="endArrow=classic;html=1;exitX=0.022;exitY=0.726;exitDx=0;exitDy=0;exitPerimeter=0;entryX=0.186;entryY=0.005;entryDx=0;entryDy=0;entryPerimeter=0;" edge="1" parent="1" source="cnfJAOq977_rUjbDMSEz-4" target="cnfJAOq977_rUjbDMSEz-12">
          <mxGeometry width="50" height="50" relative="1" as="geometry">
            <mxPoint x="450" y="650" as="sourcePoint" />
            <mxPoint x="470" y="690" as="targetPoint" />
          </mxGeometry>
        </mxCell>
        <mxCell id="cnfJAOq977_rUjbDMSEz-14" value="Send all comments to wit.ai" style="edgeLabel;html=1;align=center;verticalAlign=middle;resizable=0;points=[];" vertex="1" connectable="0" parent="cnfJAOq977_rUjbDMSEz-13">
          <mxGeometry x="-0.6463" relative="1" as="geometry">
            <mxPoint x="-59" y="10" as="offset" />
          </mxGeometry>
        </mxCell>
        <mxCell id="cnfJAOq977_rUjbDMSEz-15" value="" style="endArrow=classic;html=1;" edge="1" parent="1" target="cnfJAOq977_rUjbDMSEz-4">
          <mxGeometry width="50" height="50" relative="1" as="geometry">
            <mxPoint x="550" y="700" as="sourcePoint" />
            <mxPoint x="600" y="650" as="targetPoint" />
          </mxGeometry>
        </mxCell>
        <mxCell id="cnfJAOq977_rUjbDMSEz-16" value="wit.ai return data contains raw data" style="edgeLabel;html=1;align=center;verticalAlign=middle;resizable=0;points=[];" vertex="1" connectable="0" parent="cnfJAOq977_rUjbDMSEz-15">
          <mxGeometry x="0.6488" relative="1" as="geometry">
            <mxPoint x="70" y="28" as="offset" />
          </mxGeometry>
        </mxCell>
        <mxCell id="cnfJAOq977_rUjbDMSEz-17" value="" style="shape=image;html=1;verticalAlign=top;verticalLabelPosition=bottom;labelBackgroundColor=#ffffff;imageAspect=0;aspect=fixed;image=https://cdn3.iconfinder.com/data/icons/logos-brands-3/24/logo_brand_brands_logos_excel-128.png" vertex="1" parent="1">
          <mxGeometry x="200" y="535" width="70" height="70" as="geometry" />
        </mxCell>
        <mxCell id="cnfJAOq977_rUjbDMSEz-18" value="" style="endArrow=classic;html=1;entryX=0.981;entryY=0.617;entryDx=0;entryDy=0;entryPerimeter=0;" edge="1" parent="1" source="cnfJAOq977_rUjbDMSEz-4" target="cnfJAOq977_rUjbDMSEz-17">
          <mxGeometry width="50" height="50" relative="1" as="geometry">
            <mxPoint x="360" y="600" as="sourcePoint" />
            <mxPoint x="410" y="550" as="targetPoint" />
          </mxGeometry>
        </mxCell>
        <mxCell id="cnfJAOq977_rUjbDMSEz-19" value="return excel" style="edgeLabel;html=1;align=center;verticalAlign=middle;resizable=0;points=[];" vertex="1" connectable="0" parent="cnfJAOq977_rUjbDMSEz-18">
          <mxGeometry x="0.3866" relative="1" as="geometry">
            <mxPoint as="offset" />
          </mxGeometry>
        </mxCell>
      </root>
    </mxGraphModel>
  </diagram>
</mxfile>
